<svg xmlns="http://www.w3.org/2000/svg" width="128" height="128" fill="none"><g clip-path="url(#a)"><path fill="#0C6EBD" d="m94.76 21.3 1.03.9.46.42 4.47 4.43.4.05-.03-.05c-.2.45.18.63.4.88.19.2.37.41.54.62l1 1.34c4.05 5.42 7.13 11.3 8.64 17.93-.63.57-1.4.45-2.14.45H62.95l-.01-37.94.06-.07 5.56.04c1.64.32 3.27.61 4.9.95 7.92 1.62 14.94 5.14 21.3 10.06Z"/><path fill="#42A5F5" d="M62.94 10.32c0 12.64 0 25.29.02 37.93l-48.78-.03c4.12-18.43 20.77-34.06 39.6-37.2 1.21-.2 2.49-.13 3.62-.72l5.54.02Z"/><path fill="#539BD5" d="M62.96 48.25h46.57c.74 0 1.51.12 2.14-.44.41.47.97.45 1.53.45l8.86-.04c.25 0 .5.02.74.04.84.04 1.2.85 1.2 1.68-.03 4.63-.08 9.26-.02 13.89.02 1.48-.3 2.08-1.92 2-2.9-.13-5.82-.04-8.74-.05l-20.2.02-20-.03-10.14-.03-.02-17.5Z"/><path fill="#A2D0F6" d="m62.96 48.25.02 17.5-.06.05-10.1-.03-20.03.03-20.13.01H3.27c-.54 0-1.2-.3-1.2-.84-.03-5.13 0-10.26-.05-15.39 0-1.15.6-1.3 1.53-1.3 3.55 0 7.08-.04 10.63-.07l48.78.04ZM62.93 122.2a225470.93 225470.93 0 0 0-58.92.02c-1.03.03-1.98-.53-1.98-1.56 0-4.7.04-9.41-.03-14.12-.02-1.38.43-1.85 1.82-1.8 2.92.1 5.85.06 8.77.08l20.26-.05a22043.91 22043.91 0 0 1 29.72.07h.39l-.03 17.35Z"/><path fill="#42A5F5" d="m32.85 104.77-20.26.05c.04-6.97.08-13.94.1-20.91.02-2.71-.03-5.43-.05-8.14l.02-9.96H32.8c-.02 8.4-.04 16.82-.04 25.23 0 4.58.06 9.16.1 13.73Z"/><path fill="#A2D0F6" d="m62.94 10.32-5.55-.02c-.01-4.81 0-9.63-.06-14.45-.02-1.11.36-1.57 1.5-1.5 1.36.07 2.72.04 4.09.06L63 10.25l-.06.07Z"/><path fill="#539BD5" d="M63 10.24 62.94-5.6c1.43-.03 2.8.13 4.23.22.8.05 1.46.7 1.45 1.5l-.05 14.17-5.55-.05Z"/><path fill="#4353CC" d="m96.25 22.61-.46-.4c.24.04.59-.05.46.4Z"/><path fill="#4354CD" d="M101.5 27.93c-.23-.25-.61-.43-.41-.89.32.21.4.54.4.89Z"/><path fill="#4354CD" d="m101.13 27.1-.4-.05c.14-.11.28-.15.4.04Z"/><path fill="#539BD5" d="m62.93 122.2.02-17.36c1.42 0 2.84.06 4.26-.02 1.95-.1 3.94.4 5.86-.34 3.92.03 7.84.12 11.76.1 2.79-.03 5.6.25 8.38-.2.57.5 1.27.45 1.95.45h16.09c.69 0 1.38.03 1.95-.45 2.91.44 5.84.18 8.76.17 1.5 0 2.07.33 2.04 1.95-.11 4.76-.06 9.54-.03 14.3.02 1.1-.28 1.55-1.46 1.54-19.68-.03-39.35-.03-59.03-.04-.19 0-.37-.07-.55-.1Z"/><path fill="#0C6EBD" d="M113.2 104.38c-.57.48-1.27.45-1.95.45h-16.1c-.67 0-1.37.06-1.94-.44l-.03-4.64-.06-33.94 20.2-.02-.08 21.7-.04 16.89ZM73.13 65.77l-.06 38.7c-1.91.74-3.9.24-5.86.35-1.42.08-2.84.02-4.26.02h-.38c.3-.57.39-1.17.39-1.8l-.04-37.24.06-.06 10.15.03Z"/><path fill="#42A5F5" d="M52.77 104.82c.04-.99.12-1.98.11-2.96l-.06-36.09 10.1.04c0 12.41.02 24.82.04 37.24 0 .62-.09 1.23-.4 1.79l-9.8-.02Z"/></g><defs><clipPath id="a"><path fill="#fff" d="M0 0h128v128H0z"/></clipPath></defs></svg>