<svg width="128" height="128" fill="none" xmlns="http://www.w3.org/2000/svg"><g clip-path="url(#a)"><mask id="b" style="mask-type:luminance" maskUnits="userSpaceOnUse" x="0" y="0" width="128" height="128"><path d="M128 0H0v128h128V0Z" fill="#fff"/></mask><g mask="url(#b)"><path d="M93.187 85.159c-4.46-3.158-5.112-8.227-6.443-12.933-1.893-6.688-3.634-13.419-5.579-20.093-.694-2.379-.406-4.795-.736-7.184-1.251-9.072-4.951-17.053-10.564-24.166C63.097 12.206 54.643 5.839 44.231 2.37c-8.911-2.969-17.913-3.44-26.786.274-3.28 1.373-6.306 3.2-8.675 5.942.084.77.68 1.18 1.156 1.68 1.274 1.336 2.558 2.672 3.837 4.008l.708.014c.142-1.1 1.034-1.411 1.87-1.784 2.345-2.247 5.234-3.304 8.359-3.856 2.492-.732 5.036-.86 7.608-.652 2.705.25 5.485.16 7.92 1.68 2.1.222 4.06.827 5.754 2.143.288.029.618-.028.86.09 3.922 1.907 7.575 4.206 10.671 7.32 1.6 1.143 3.035 2.446 4.055 4.155 2.435 2.015 4.016 4.7 5.63 7.334.784 1.275 1.794 2.493 1.874 4.112 1.346 1.755 1.888 3.837 2.412 5.928.878 2.51 1.393 5.088 1.34 7.76.062 2.544.331 5.102-.67 7.552-.51 3.138-1.35 6.121-3.865 8.326-.019 1.01-.732 1.491-1.482 1.944 0 .222.004.44.004.661 1.501 1.992 3.65 3.384 5.051 5.466 2.766-2.209 4.413-5.249 6.108-8.33.448.537.476 1.118.594 1.66.746 3.437 1.388 6.897 2.28 10.295.43 1.633.387 2.931-.958 4.03.83.383 1.34 1.143 1.982 1.743 2.54 2.374 4.768 5.069 7.496 7.25a.443.443 0 0 0 .17.051c.981-1.552 2.567-2.548 3.653-4.007Z" fill="#70A1F6"/><path d="m13.76 14.264-3.837-4.007c-.472-.496-1.072-.911-1.157-1.68-1.388.929-2.03 2.548-3.318 3.572-.184.123-.363.246-.548.368l.02-.014c.06.33-.034.585-.364.722l.023-.004C2.965 16.487 1.365 19.753.643 23.378c-1.713 8.624-.34 16.86 3.02 24.851 3.404 8.09 8.794 14.717 15.242 20.556 2.44-1.577 4.998-2.94 7.703-4.022-1.194-.939-2.52-1.727-3.403-3.02-1.832-1.058-3.078-2.738-4.498-4.234-2.828-3.38-5.466-6.882-7.156-10.998-.949-1.935-1.893-3.866-2.063-6.065-1.5-2.374-1.36-5.112-1.727-7.736-.09-2.644-.085-5.277.698-7.84.529-3.149 1.652-6.028 3.866-8.402.25-.883.996-1.444 1.435-2.204Z" fill="#3E62A1"/><path d="M89.526 89.163a.358.358 0 0 1-.17-.052c-1.458 1.426-2.912 2.856-4.366 4.281-1.33 1.072-1.043 1.865.128 3.021 10.606 10.488 21.135 21.047 31.689 31.587 1.917-1.643 3.658-3.47 5.367-5.325-.354-.755-.873-1.383-1.463-1.968-10.257-10.209-20.509-20.428-30.765-30.637-.278-.265-.472-.52-.42-.907Z" fill="#EA654C"/><path d="M89.526 89.162c-.052.392.142.642.41.911 10.262 10.209 20.51 20.428 30.766 30.638.59.59 1.109 1.213 1.463 1.968 1.515-1.482 2.979-3.026 4.565-4.423 1.052-.925.995-1.505.009-2.483-8.623-8.547-17.195-17.152-25.781-25.738-1.586-1.586-3.266-3.082-4.72-4.781-1.114-1.298-1.992-1.388-3.05-.09-1.085 1.454-2.67 2.45-3.662 3.998Z" fill="#EE8E77"/><path d="M4.56 13.23c.325-.137.425-.392.363-.722-.278.16-.387.41-.363.722Z" fill="#77AEF5"/><path d="M4.904 12.524c.184-.122.364-.245.548-.368-.18.123-.364.246-.548.368Z" fill="#77AEF5"/><path d="M25.62 64.525c-2.851 1.139-5.543 2.577-8.116 4.239-5.229 4.125-9.324 9.1-11.558 15.464-.617 1.757-1.24 3.513-1.339 5.404 7.867-.458 15.226 1.229 21.76 5.672 11.284 7.673 16.553 18.45 15.986 32.078 8.951-1.442 15.848-6.145 21.077-13.409 2.757-3.831 4.513-8.115 5.294-12.783-.681.005-1.363.015-2.045.005-12.08-.149-21.868-4.935-29.093-14.643-5.125-6.887-7.085-14.778-6.791-23.286-1.732.418-3.454.836-5.175 1.259Z" fill="#F2BC45"/><path d="M69.183 95.394c.333-2.95-.597-5.782-.796-8.683l.035.01c-.304.075-.279-.15-.304-.328-.865-2.583-1.955-5.076-3.164-7.519a.348.348 0 0 1-.19-.293 51.42 51.42 0 0 0-5.323-6.727 41.608 41.608 0 0 0-10.415-6.837c-.144-.1-.293-.199-.437-.298l-.015.034c-3.523-.955-7.026-2.01-10.723-2.06l-1.264.12c-1.9 18.694 13.882 34.471 32.596 32.58ZM4 95.29c-.657 17.405 15.29 33.347 32.696 32.69.427-5.618-.24-11.086-2.906-16.096C27.465 99.962 17.44 94.524 4 95.29Z" fill="#F2BC45"/><path d="M63.926 78.379c1.142 2.317 2.176 4.677 3.002 7.132.094.104.193.208.288.311l-.033-.01c6.258 1.766 13.277 1.752 17.808 7.576l4.366-4.28c-2.728-2.181-4.96-4.872-7.495-7.25-.642-.6-1.147-1.355-1.983-1.742-1 1.307-2.237 1.298-3.738.934-4.05-.972-8.137-1.788-12.215-2.671Z" fill="#E7EBF3"/><path d="M66.804 66.33c.755-.448 1.463-.93 1.482-1.945-3.035-3.054-6.05-6.126-9.123-9.147-.836-.821-1.039-1.416-.066-2.294a51.824 51.824 0 0 0 3.874-3.88c.822-.91 1.35-.74 2.125.047 2.312 2.35 4.7 4.635 7.056 6.944 1-2.45.727-5.013.67-7.553-.561-.51-1.142-1-1.68-1.538-3.28-3.267-3.276-3.267.345-6.221-.524-2.091-1.067-4.173-2.412-5.929-1.54 1.105-2.743 2.559-4.055 3.895-.816.83-1.369.807-2.162-.01-2.374-2.445-4.772-4.866-7.23-7.222-.935-.892-.78-1.463.07-2.275 1.997-1.902 3.918-3.889 5.872-5.838-1.02-1.709-2.455-3.012-4.055-4.154-2.039 2.03-4.097 4.04-6.107 6.103-.68.694-1.19.75-1.893.033a465.05 465.05 0 0 0-7.481-7.476c-.784-.765-.713-1.298.042-2.025 1.345-1.303 2.605-2.695 3.904-4.05-1.695-1.317-3.654-1.921-5.754-2.143-.765.718-1.567 1.397-2.29 2.157-.637.666-1.17.864-1.878.09-1.222-1.336-2.497-2.62-3.752-3.923-2.573-.207-5.117-.08-7.609.652 2.308 2.346 4.578 4.73 6.943 7.018.911.883 1.086 1.501.057 2.412a46.635 46.635 0 0 0-3.743 3.739c-.826.925-1.369.892-2.233.004-3.082-3.153-6.249-6.22-9.383-9.317-.836.373-1.728.684-1.87 1.784.907 1.076 1.742 2.233 2.734 3.224a38631.52 38631.52 0 0 0 46.157 46.162c1.024 1.038 2.072 2.077 3.445 2.676ZM53.853 49.697c-.274-.199-.53-.34-.727-.543-2.677-2.662-5.334-5.348-8.024-7.996-.61-.6-.34-.991.136-1.458 1.43-1.407 2.866-2.814 4.248-4.263.675-.703 1.195-.74 1.903-.018a401.446 401.446 0 0 0 7.641 7.627c.704.684.581 1.09-.056 1.7-1.454 1.382-2.846 2.827-4.272 4.238-.245.245-.529.448-.85.713Zm-16.86-28.448c.283.208.542.35.74.552 2.625 2.615 5.24 5.244 7.869 7.86.543.542.453 1-.052 1.5-1.506 1.492-3.011 2.978-4.484 4.498-.529.543-.93.543-1.463.005a881.453 881.453 0 0 0-7.864-7.859c-.6-.59-.609-1.01 0-1.595 1.487-1.426 2.917-2.908 4.385-4.352.236-.236.552-.392.869-.609Z" fill="#70A1F6"/><path d="M66.805 66.33c-1.373-.6-2.421-1.638-3.45-2.667a38705.959 38705.959 0 0 1-46.157-46.161c-.991-.996-1.827-2.148-2.733-3.224l-.708-.014c-.439.76-1.185 1.321-1.425 2.209 3.138 3.181 6.254 6.381 9.425 9.525.746.736.86 1.236.038 1.992a59.729 59.729 0 0 0-3.865 3.865c-.907 1-1.549.869-2.436-.047-2.294-2.36-4.678-4.63-7.028-6.938-.784 2.563-.788 5.196-.703 7.84 1.699.68 2.553 2.326 3.894 3.417.845.684.727 1.312-.024 2.025-.76.717-1.43 1.524-2.143 2.294.17 2.2 1.114 4.13 2.063 6.065 1.44-1.478 2.888-2.95 4.319-4.437.547-.571 1.057-.66 1.656-.061 2.582 2.596 5.174 5.173 7.755 7.764.402.401.746.883.217 1.374-2.28 2.105-4.078 4.724-6.792 6.362 1.421 1.497 2.667 3.172 4.499 4.234 1.987-2.001 3.964-4.007 5.956-5.999.444-.444.944-1.114 1.614-.43 2.493 2.554 5.282 4.824 7.43 7.708 3.507.052 6.83 1.048 10.171 1.954-.406-.779-.009-1.298.538-1.822 1.228-1.18 2.493-2.336 3.602-3.625 1.043-1.213 1.76-1.062 2.822.029 2.946 3.025 6.009 5.942 9.025 8.902 1.076-.052 1.42-1.322 2.445-1.468 0-.222-.005-.444-.005-.666Zm-32.11-15.52c-.038-.608.297-.882.58-1.17 1.412-1.42 2.861-2.808 4.235-4.267.698-.736 1.151-.467 1.732.123 2.483 2.52 4.965 5.036 7.51 7.49.806.784.707 1.29-.053 2.002a97.087 97.087 0 0 0-4.125 4.125c-.6.633-1.015.774-1.704.066-2.506-2.577-5.07-5.097-7.604-7.646-.24-.236-.425-.533-.57-.722Zm-13.5-13.791c.081-.142.161-.378.322-.533 1.572-1.596 3.162-3.177 4.739-4.768.632-.637 1.038-.155 1.463.27 2.544 2.544 5.074 5.097 7.637 7.617.637.624.727 1.086.038 1.738a94.46 94.46 0 0 0-4.126 4.125c-.826.882-1.42.703-2.18-.08-2.346-2.408-4.744-4.763-7.113-7.142-.33-.326-.727-.618-.78-1.227Z" fill="#3E62A1"/><path d="M67.216 85.825c-.095-.104-.194-.207-.288-.311.023.17 0 .382.288.311Z" fill="#77AEF5"/><path d="M128.122 88.552c-1.936-3.206-4.743-5.559-7.692-7.752-3.622-2.693-7.523-4.918-11.637-6.773-2.309 4.833-4.614 9.669-6.931 14.498-2.236 4.66-4.515 9.303-6.713 13.981-.738 1.571-1.637 3.072-2.167 4.74 2.294 1.196 4.653 1.206 7.077.439 1.349-.427 2.68.282 3.084 1.561.4 1.26-.246 2.546-1.542 3.034a12.808 12.808 0 0 1-3.595.772c-2.485.181-4.842-.309-7.103-1.318-.296.142-.374.443-.5.704-2.041 4.243-4.078 8.489-6.121 12.732-.24.498-.314 1.089-.807 1.447 1.13.77 2.47.885 3.75 1.059 10.253 1.392 18.949-1.697 26.043-9.224 2.096-2.224 3.669-4.815 4.96-7.582 3.266-6.998 6.55-13.988 9.828-20.98.009-.021.041-.032.062-.049.004-.43.004-.858.004-1.289Zm-23.156 5.342c3.29 0 6.13 1.961 7.196 4.813.481 1.283-.059 2.645-1.258 3.177-1.209.535-2.561.027-3.196-1.201-.928-1.795-1.559-2.088-3.624-1.678-1.363.271-2.579-.45-2.937-1.738-.342-1.23.335-2.47 1.608-2.934a7.536 7.536 0 0 1 2.211-.439Z" fill="#BCEF52"/><path d="M69.786 57.473c-7.12-.026-14.123.674-20.794 3.384-.765.311-1.502.71-2.214 1.135-.765.456-1.15 1.17-1.15 2.078.004 8.214-.295 16.441.083 24.637.505 10.877 5.863 18.993 15.37 24.321 2.54 1.423 5.293 2.298 8.144 2.868.18.035.374.016.56.021.005-2.169.018-4.34.015-6.508-.005-4.446-.018-8.892-.027-13.338-2.427-.035-4.467.877-6.223 2.512-1.11 1.033-2.63 1.023-3.587.01-.953-1.009-.877-2.525.212-3.579 2.68-2.591 5.904-3.86 9.62-3.917.002-3.165.007-6.328.005-9.493-.003-8.04-.01-16.085-.014-24.13Zm-9.276 24.92c-2.028-.006-4.112-.873-5.34-2.17-.928-.981-.962-2.485-.076-3.424.887-.94 2.31-1.017 3.349-.18 1.473 1.185 2.433 1.185 3.935 0 1.096-.863 2.496-.764 3.402.24.89.987.828 2.421-.17 3.398-1.451 1.418-3.214 2.085-5.1 2.136Z" fill="#F83D47"/><path d="M92.982 107.249c.528-1.668 1.43-3.17 2.167-4.741 2.198-4.68 4.477-9.32 6.713-13.98 2.317-4.83 4.622-9.666 6.931-14.498-3.439-1.758-7.05-3.076-10.753-4.148-1.333-.387-2.694-.677-4.041-1.01-2.5-.476-5.015-.74-7.566-.62-1.125.05-1.93.547-2.425 1.553-.188.383-.346.781-.538 1.163-.878 1.739-1.57 3.568-2.554 5.255-.856 2.106-1.86 4.143-2.875 6.173-.22.514-.427 1.036-.667 1.54-1.225 2.584-2.457 5.162-3.688 7.742-.5 1.54-1.108 3.045-1.494 4.623-.385 1.912-.71 3.835-.772 5.788-.145 4.481.728 8.769 2.506 12.88 2.072 4.547 5.092 8.335 9.076 11.352.149.111.315.198.471.298.493-.356.569-.949.807-1.447 2.044-4.243 4.08-8.489 6.122-12.732.126-.261.203-.562.5-.704a.665.665 0 0 1-.01-.113c-.079-.011-.17 0-.237-.035-3.297-1.689-5.579-4.29-6.797-7.775-.438-1.252.305-2.556 1.507-2.999 1.154-.427 2.58.071 3.039 1.249.881 2.269 2.351 3.98 4.434 5.195.05 0 .097-.003.144-.009Zm-3.995-20.91c3.176.005 6.014 1.979 7.082 4.84.456 1.22-.017 2.51-1.136 3.091-1.18.614-2.588.174-3.25-1.015-1.115-2.003-1.474-2.172-3.793-1.79-.026.005-.053.006-.08.01-1.306.188-2.42-.527-2.763-1.775-.328-1.194.334-2.442 1.547-2.905.81-.31 1.663-.393 2.393-.456Z" fill="#73DE6E"/><path d="M80.917 76.22c.985-1.688 1.674-3.517 2.554-5.256.193-.382.35-.78.538-1.163.495-1.004 1.3-1.5 2.425-1.553 2.551-.118 5.067.146 7.566.62-.003-1.503-.039-3.007.003-4.509.032-1.176-.438-1.993-1.461-2.555-2.66-1.462-5.524-2.32-8.468-2.953-4.709-1.011-9.475-1.43-14.287-1.376l.016 24.134c.002 3.165-.003 6.328-.005 9.493l.015.05c1.324-.068 2.605.185 3.877.522 1.23-2.58 2.464-5.158 3.688-7.741.24-.506.445-1.027.666-1.54-1.974-.099-3.701-.779-5.103-2.194-.96-.968-.97-2.425-.054-3.393.877-.927 2.224-1.02 3.272-.23 1.658 1.25 2.467 1.253 4.054.01.213-.167.437-.307.704-.367Z" fill="#FE808B"/><path d="M73.927 114.965c-1.777-4.11-2.65-8.399-2.505-12.88.062-1.953.388-3.876.771-5.788l-2.38-.324a.82.82 0 0 0-.041.103c.01 4.446.022 8.891.027 13.337.003 2.169-.01 4.34-.015 6.509 1.43-.115 2.786-.54 4.143-.957Z" fill="#FD7F8A"/><path d="M104.966 93.894a7.553 7.553 0 0 0-2.212.437c-1.273.466-1.952 1.705-1.609 2.934.36 1.29 1.576 2.01 2.938 1.74 2.064-.41 2.696-.118 3.624 1.677.635 1.228 1.987 1.737 3.195 1.2 1.199-.532 1.739-1.892 1.259-3.176-1.065-2.85-3.905-4.81-7.195-4.812Z" fill="#154B6A"/><path d="M90.894 111.621c0 .039.004.076.01.113 2.263 1.009 4.618 1.498 7.103 1.318a12.738 12.738 0 0 0 3.595-.772c1.297-.488 1.942-1.774 1.542-3.034-.404-1.28-1.735-1.989-3.084-1.562-2.425.767-4.782.759-7.077-.438a.75.75 0 0 1-.142.008c-.111.269-.21.545-.337.806-.572 1.173-1.17 2.332-1.61 3.561Z" fill="#144A6A"/><path d="M60.51 82.396c1.885-.052 3.65-.72 5.098-2.137.998-.975 1.06-2.41.17-3.399-.906-1.004-2.305-1.102-3.402-.238-1.503 1.184-2.464 1.184-3.935-.002-1.04-.836-2.462-.76-3.349.18-.886.94-.852 2.444.076 3.425 1.228 1.297 3.313 2.166 5.342 2.17Z" fill="#18283B"/><path d="M69.772 96.08c.013-.036.027-.07.042-.103-.002-1.607-.002-3.213-.003-4.822l-.015-.05c-3.716.055-6.94 1.325-9.621 3.918-1.09 1.054-1.165 2.568-.213 3.579.955 1.013 2.478 1.023 3.587-.01 1.755-1.635 3.795-2.548 6.223-2.512Z" fill="#17283B"/><path d="M88.987 86.34c-.73.063-1.583.147-2.393.456-1.212.462-1.876 1.711-1.547 2.905.343 1.247 1.456 1.963 2.762 1.774.026-.003.053-.004.08-.01 2.319-.383 2.678-.212 3.794 1.791.662 1.19 2.068 1.63 3.25 1.015 1.118-.582 1.592-1.87 1.136-3.092-1.069-2.86-3.906-4.834-7.082-4.84Z" fill="#162A3B"/><path d="M90.894 111.619c.44-1.23 1.036-2.388 1.608-3.558.127-.261.226-.537.337-.806-2.085-1.215-3.553-2.926-4.435-5.195-.457-1.178-1.885-1.676-3.039-1.249-1.2.445-1.943 1.747-1.506 2.999 1.218 3.484 3.498 6.086 6.797 7.775.069.032.16.022.238.034Z" fill="#16293C"/><path d="M80.916 76.222c-.268.062-.492.2-.705.368-1.587 1.242-2.394 1.239-4.054-.012-1.049-.79-2.394-.694-3.271.23-.917.97-.906 2.426.053 3.394 1.402 1.417 3.13 2.097 5.104 2.194 1.013-2.03 2.017-4.068 2.873-6.174Z" fill="#164A6B"/><path d="m69.81 91.156.004 4.82 2.38.325c.386-1.578.994-3.083 1.493-4.623-1.27-.337-2.552-.59-3.876-.522Z" fill="#15496A"/></g></g><defs><clipPath id="a"><path fill="#fff" d="M0 0h128v128H0z"/></clipPath></defs></svg>