<svg width="100" height="100" fill="none" xmlns="http://www.w3.org/2000/svg"><path d="M50.02 68.017h25.32c2.37 0 3.63 1.134 3.66 3.253.026 2.212-1.45 3.727-3.704 3.73h-50.15c-1.063 0-2.04-.187-2.882-.938-1.284-1.137-1.541-2.555-.99-4.06.531-1.445 1.693-2.002 3.25-2.002 8.504.037 17 .02 25.495.017ZM50.005 83.058c5.33 0 10.66.106 15.982-.056 2.09-.063 3.976 1.582 4.012 3.519.037 1.937-1.768 3.476-4.082 3.479H34.12c-2.531 0-4.086-1.363-4.12-3.532-.033-2.17 1.184-3.41 3.358-3.41h16.647Z" fill="#464D55"/><path fill-rule="evenodd" clip-rule="evenodd" d="M60.023 37.693C63.668 34.943 66 30.727 66 26c0-8.284-7.163-15-16-15s-16 6.716-16 15c0 4.727 2.332 8.943 5.977 11.693a19.996 19.996 0 0 0-9.752 14.318 2.553 2.553 0 0 0-.03.361c-.12.296-.188.61-.192.933-.02.486.074.97.276 1.423.203.453.509.864.9 1.208.39.344.857.614 1.37.792a4.516 4.516 0 0 0 1.617.244c10.556.037 21.112.037 31.669 0a4.516 4.516 0 0 0 1.616-.244c.513-.178.98-.448 1.37-.792.391-.344.697-.755.9-1.208a3.17 3.17 0 0 0 .276-1.423 2.577 2.577 0 0 0-.193-.947 2.582 2.582 0 0 0-.029-.347 20.002 20.002 0 0 0-9.752-14.318ZM61.793 50a12.81 12.81 0 0 0-23.587.004 3929.657 3929.657 0 0 1 11.798-.004h11.788ZM41.36 26c0 4.474 3.868 8.1 8.64 8.1s8.64-3.627 8.64-8.1c0-4.474-3.868-8.1-8.64-8.1s-8.64 3.627-8.64 8.1Z" fill="#00F"/></svg>