<svg width="256" height="256" fill="none" xmlns="http://www.w3.org/2000/svg"><path d="m50.907 28.52-5.383 2.3 18.302 18.247 18.456 18.4-9.997 9.966C66.902 82.953 61.673 87.4 60.75 87.4c-.769 0-9.535-7.973-19.532-17.94l-17.84-17.787-1.846 6.44c-2 7.514-2.307 19.167-.77 26.527 1.846 8.28 6.306 15.487 13.689 22.387 10.766 9.813 18.917 12.88 34.45 12.42l12.766-.307 5.844 5.673c3.076 3.067 5.998 5.52 6.46 5.52 1.538 0 9.074-7.36 9.074-8.74 0-.766-3.384-4.753-7.69-8.893l-7.69-7.513 4.922-5.06c2.768-2.76 5.382-5.06 5.998-5.06.615 0 4.614 3.526 9.074 7.82l7.997 7.82 4.614-4.907 4.46-5.06-5.844-5.98-5.844-5.98V73.907c0-13.647-.462-15.64-4.614-23.154C102.737 40.48 94.74 33.58 83.666 29.287c-10.15-3.834-24.915-4.14-32.759-.767Z" fill="#9EC8D2"/><path fill-rule="evenodd" clip-rule="evenodd" d="m48.516 29.542-2.992 1.278 18.302 18.247L82.28 67.463l2.136-2.13-18.455-18.4-17.444-17.391Zm25.653 46.013a140.28 140.28 0 0 1-2.06 2.06l.176-.182 1.884-1.878Zm43.554 32.954-7.931-7.756c-4.46-4.293-8.459-7.82-9.074-7.82-.615 0-3.23 2.3-5.998 5.06l-.889.914c2.272-2.186 4.232-3.84 4.754-3.84.615 0 4.614 3.526 9.074 7.82l7.997 7.82 2.067-2.198Zm-17.068 16.376c-1.909 1.791-3.851 3.315-4.55 3.315-.462 0-3.385-2.453-6.46-5.52l-5.845-5.673-12.765.306c-15.534.46-23.685-2.606-34.45-12.42-7.383-6.9-11.843-14.106-13.689-22.386-1.538-7.36-1.23-19.014.769-26.527l.896-3.127-1.184-1.18-1.845 6.44c-2 7.514-2.307 19.167-.77 26.527 1.846 8.28 6.306 15.487 13.689 22.387 10.766 9.813 18.917 12.88 34.45 12.42l12.766-.307 5.844 5.673c3.076 3.067 5.998 5.52 6.46 5.52.971 0 4.337-2.937 6.684-5.448Z" fill="#87A7AF"/><path d="m153.029 159.467-15.38 15.333 25.992 25.453c14.15 13.954 27.53 26.067 29.683 26.834 9.69 3.68 20.917-.46 26.608-9.66 7.382-12.114 3.998-18.247-26.454-48.454l-25.069-24.84-15.38 15.334Zm54.599 38.333c2.307 4.293 1.845 10.887-1.077 14.107-3.076 3.526-13.073 3.68-16.456.306-5.845-5.826-3.691-15.946 4.152-18.86 4.307-1.533 11.381.767 13.381 4.447Z" fill="#9EC8D2"/><path fill-rule="evenodd" clip-rule="evenodd" d="m222.284 212.797-.219.363c-5.691 9.2-16.918 13.34-26.607 9.66-2.153-.767-15.534-12.88-29.683-26.833l-24.909-24.393-3.217 3.206 25.992 25.453c14.15 13.954 27.53 26.067 29.683 26.834 9.69 3.68 20.917-.46 26.608-9.66.991-1.627 1.788-3.146 2.352-4.63Zm-13.613-5.142c.795-3.202.476-7.027-1.043-9.855-2-3.68-9.074-5.98-13.381-4.447a11.334 11.334 0 0 0-4.956 3.573c.902-3.421 3.348-6.45 7.09-7.839 4.306-1.534 11.381.766 13.38 4.446 2.307 4.294 1.846 10.887-1.077 14.107a.174.174 0 0 1-.013.015Z" fill="#87A7AF"/><path d="M211.473 35.113c-1.692.767-4.46 2.76-5.998 4.6l-3.076 3.374-23.982 23.46-57.224 57.346c-46.908 46.92-60.289 61.334-64.287 68.54-16.303 30.36-21.686 40.634-20.763 40.634.461 0 4.46-1.994 8.92-4.447 12.458-6.9 32.298-17.633 36.604-19.78 2.153-1.227 30.76-28.827 63.519-61.487l59.52-59.34 21.224-21.466 3.845-3.68c13.381-12.42-1.384-34.654-18.302-27.754Z" fill="#FFDC71"/><path d="M211.473 35.113c-1.692.767-4.46 2.76-5.998 4.6l-3.076 3.374 11.842 11.806 11.689 11.654 3.845-3.68c13.381-12.42-1.384-34.654-18.302-27.754Z" fill="#E80048"/><path d="M195.17 49.987c-1.692 1.993-.308 3.986 9.843 14.106 11.227 11.194 11.996 11.654 14.457 9.047 2.615-2.453 2.153-3.22-8.766-14.107-6.306-6.286-11.843-11.5-12.458-11.5-.615 0-1.846 1.074-3.076 2.454ZM186.403 58.727c-1.384 1.533 1.077 4.753 10.305 13.953 10.612 10.58 12.15 11.5 13.996 9.353 1.845-2.146.615-3.986-9.382-13.953-6.152-6.287-11.689-11.347-12.304-11.347-.615 0-1.692.92-2.615 1.994Z" fill="#000"/><path d="M121.193 123.893c-46.908 46.92-60.289 61.334-64.287 68.54-16.303 30.36-21.686 40.634-20.763 40.634.461 0 4.46-1.994 8.92-4.447 12.458-6.9 32.298-17.633 36.604-19.78 2.153-1.227 30.76-28.827 63.519-61.487l59.52-59.34-4.46-4.14-4.307-4.14-40.602 40.327c-73.977 73.14-76.284 75.747-74.131 79.273 2.46 4.14 2.614 3.834-4.614 7.667-3.691 1.84-10.305 5.52-14.919 7.973-7.074 3.987-8.459 4.294-10.458 2.454-1.846-1.994-1.23-4.14 5.69-16.56 4.307-7.974 8.152-14.72 8.46-15.027.46-.46 2.153.46 3.844 1.993 2.923 2.76 3.845 1.84 50.446-44.62 25.992-26.066 52.292-52.593 58.444-59.033l11.073-11.5-4.306-4.14-4.307-4.14-59.366 59.493Z" fill="#ECC140"/><path d="M81.206 199.333c2.46 4.14 2.614 3.834-4.614 7.667-3.691 1.84-10.305 5.52-14.919 7.973-7.074 3.987-8.459 4.294-10.458 2.454-1.846-1.994-1.23-4.14 5.69-16.56 4.307-7.974 8.152-14.72 8.46-15.027.285-.285 1.04-.041 1.977.549l1.867 1.444 11.997 11.5Z" fill="#FFEDCA"/><path d="M36.143 233.067c-.923 0 4.46-10.274 20.763-40.634 1.185-2.136 3.194-4.905 6.657-8.966l3.779 2.922c-.936-.59-1.692-.834-1.977-.549-.308.307-4.153 7.053-8.46 15.027-6.92 12.42-7.536 14.566-5.69 16.56 2 1.84 3.384 1.533 10.458-2.454 4.614-2.453 11.228-6.133 14.919-7.973 7.228-3.833 7.075-3.527 4.614-7.667l5.084 5.467c-2.563 2.371-4.172 3.783-4.623 4.04-4.306 2.147-24.146 12.88-36.604 19.78-4.46 2.453-8.459 4.447-8.92 4.447Z" fill="#FFDC95"/><path d="M36.143 233.067c.461 0 4.46-1.994 8.92-4.447 4.32-2.393 9.53-5.247 14.67-8.045 0 0-2.133.225-4.266.225-2.134 0-4.252-3.373-4.252-3.373s-4.282-1.96-3.215-4.094c1.067-2.133.851-5.866.851-5.866-10.046 18.82-13.458 25.6-12.708 25.6Z" fill="#353535"/><path fill-rule="evenodd" clip-rule="evenodd" d="M234.898 52.834a16.98 16.98 0 0 1-2.99 3.633l-3.845 3.68-21.224 21.466-59.52 59.34c-32.759 32.66-61.366 60.26-63.519 61.487-4.306 2.147-24.146 12.88-36.604 19.78-3.635 2-6.964 3.694-8.32 4.252-2.348 4.663-3.134 6.595-2.733 6.595.46 0 4.46-1.994 8.92-4.447 12.457-6.9 32.297-17.633 36.604-19.78 2.153-1.227 30.76-28.827 63.519-61.487l59.52-59.34 21.224-21.466 3.845-3.68c3.191-2.962 4.781-6.483 5.123-10.033Z" fill="#000" fill-opacity=".13"/></svg>